<svg xmlns="http://www.w3.org/2000/svg" viewBox="0 17.530000686645508 354.8800048828125 39.62000274658203" data-asc="1.111328125" width="354.8800048828125" height="39.62000274658203"><defs/><g fill="#000000"><g transform="translate(0, 0)"><path d="M12.23 34.57Q11.94 41.48 11.94 48.78L11.94 56.05L10.16 56.05L9.55 56.03L0.88 56.10Q0.05 56.10 0 56.13Q0 56.10 0.10 55.71L0.10 55.57L0.12 55.47Q0 53.71 0 51.20L0.10 23.93L0.07 22.66L0.07 21.44L0.02 19.14Q0.02 18.90 0.29 18.63L3.64 18.63L5.59 18.60Q12.48 18.60 15.44 18.80Q18.41 18.99 19.70 18.99Q20.41 23.19 21.80 30.13L23.54 38.87L24.39 38.87L27.51 22.90Q27.59 22.53 27.86 20.76Q28.13 18.99 28.27 18.80L28.37 18.80L44.26 18.65L45.21 18.68L47.95 18.68Q48.17 18.77 48.19 19.58L48.44 28.81Q48.73 40.28 48.85 46.68Q48.85 51.61 48.71 55.93Q48.63 56.23 47.73 56.27L46.63 56.32Q45.31 56.37 44.68 56.37L43.41 56.37Q41.04 56.40 36.43 56.40Q35.57 55.64 35.57 49.85L35.62 42.19L35.62 40.21Q35.62 37.60 35.60 36.35L34.67 36.18Q33.86 39.14 31.57 49.34L31.35 50.32Q31.18 51.07 30.77 53.02Q30.37 54.96 30.13 55.96Q29.83 56.30 27.54 56.30L27.22 56.30L24.49 56.23L23.00 56.25L21.85 56.25L19.92 56.27L19.24 56.27Q18.12 56.27 17.99 55.76L18.02 55.79L15.80 46.09Q15.70 45.73 15.36 44.49Q15.01 43.26 14.97 42.43L13.13 34.52L12.23 34.57ZM91.80 55.83Q91.77 56.15 90.45 56.15L88.21 56.15L86.69 56.18L85.21 56.18L82.84 56.20Q79.30 56.20 76.95 56.03Q76.88 56.01 76.78 55.74L76.66 55.22Q76.44 52.71 75.51 50.37L65.06 50.46Q64.97 50.88 64.43 52.93Q63.89 54.98 63.62 56.03Q63.38 56.27 61.30 56.27L60.69 56.25L59.28 56.25L52.93 56.40L52.20 56.40L51.51 56.42L49.80 56.42Q49.63 56.25 49.44 55.98Q51.88 47.53 56.05 35.03L56.62 33.30L56.59 33.30L57.25 31.27Q57.57 30.30 59.07 25.85Q60.57 21.41 60.95 20.12Q61.33 18.82 61.40 18.77L65.45 18.77L74.12 18.65L76.46 18.77L78.39 18.65Q79.86 18.65 79.86 19.24Q82.30 26.05 86.38 38.84Q90.45 51.64 90.97 53.22L91.31 54.44Q91.48 55.10 91.80 55.83M67.63 42.50L68.63 42.53L74.46 42.50Q74.10 39.60 73.90 38.23L72.97 34.06Q71.51 27.59 71.46 27.47Q71.41 27.34 71.37 27.23Q71.34 27.12 71.31 27.09Q71.29 27.05 71.25 26.95Q71.22 26.86 71.18 26.82Q71.14 26.78 71.09 26.71Q70.92 26.42 70.39 26.20Q69.73 26.34 66.46 40.89L66.19 42.50L67.63 42.50ZM104.03 18.85L111.87 18.77Q114.36 18.77 116.38 18.87Q121.83 19.02 124.67 21.44Q127.51 23.85 127.51 28.25Q127.51 31.30 125.73 33.46Q123.95 35.62 120.53 37.26Q125.95 38.96 127.10 45.56Q127.37 47.00 127.53 48.85Q127.69 50.71 127.78 51.34L128.03 52.59Q128.42 54.79 128.71 55.76L128.61 55.83Q124.46 56.10 121.03 56.10Q117.60 56.10 114.97 55.98L114.82 55.98Q114.06 55.98 113.21 48.78L113.09 47.73Q112.99 45.04 112.15 44.12Q111.30 43.19 109.23 43.19L108.91 43.21L107.62 43.21L107.62 50.63L107.64 51.42L107.64 55.88Q107.57 56.13 107.28 56.18Q104.59 56.27 99.69 56.27Q94.80 56.27 93.24 56.30L93.09 56.25L93.04 56.27Q92.99 56.27 92.90 56.20L92.94 54.00L92.92 53.27L93.02 43.14L93.02 41.36L93.04 39.53L93.07 33.20L93.09 32.37L93.02 26.83Q93.02 26.83 93.12 19.04Q93.12 18.85 94.51 18.85L96.07 18.87L97.56 18.87L100.66 18.90L104.03 18.85M128.86 55.69L128.74 55.76L128.74 55.71Q128.74 55.69 128.86 55.69M128.74 55.76L128.74 55.79Q128.71 55.79 128.71 55.76L128.74 55.76M113.06 26.81Q111.60 26.17 109.16 26.17L107.74 26.17Q107.47 26.56 107.47 30.29Q107.47 34.01 107.59 35.28Q115.23 35.11 115.23 30.00Q115.23 27.83 113.06 26.81ZM131.30 22.36L131.23 20.26Q131.23 18.92 131.49 18.60Q132.15 18.58 134.00 18.58Q135.84 18.58 137.18 18.60L140.63 18.65Q141.58 18.58 143.38 18.58Q145.19 18.58 145.68 19.07Q145.56 25.02 145.56 33.23L146.41 33.37Q146.78 32.42 147.74 30.52Q148.71 28.61 148.85 28.30L149.12 27.71Q149.22 27.49 150.01 25.82Q150.81 24.15 151.64 22.06Q152.47 19.97 153.42 18.77Q155.13 18.75 157.58 18.75Q160.03 18.75 163.31 18.84Q166.58 18.92 168.21 18.92Q161.25 31.49 158.33 36.33L158.89 37.23Q159.89 38.48 163.26 44.34Q166.63 50.20 168.14 52.66L168.73 53.61Q169.80 55.40 169.80 55.64Q169.80 55.88 169.65 56.08L169.51 56.08Q168.14 56.03 167.30 56.03Q166.46 56.03 165.09 56.08L154.13 56.08Q150.37 49.05 146.31 40.82Q146.12 42.77 145.73 50.05L145.73 50.37L145.78 55.91Q145.48 56.35 143.21 56.35L142.70 56.32L141.38 56.32L134.47 56.37L132.23 56.37Q131.54 56.37 131.25 55.86L131.18 55.79L131.18 52.08L131.23 48.24L131.23 34.45L131.30 22.36ZM170.19 45.48L183.11 45.26Q183.59 45.26 183.92 46.09Q184.25 46.92 184.57 47.41Q185.33 48.58 187.07 48.58Q188.82 48.58 189.89 47.77Q190.97 46.95 190.97 45.65Q190.97 44.36 190.31 43.88Q189.65 43.41 188.87 42.96Q188.09 42.50 186.56 42.26Q185.03 42.02 184.89 41.97L184.94 41.97L183.54 41.60Q182.20 41.36 181.30 41.06Q175.46 39.50 172.86 37.13Q170.26 34.77 170.26 30.76Q170.26 27.86 171.34 25.54Q172.41 23.22 174.15 21.75Q179.15 17.53 187.96 17.53Q194.97 17.53 198.97 20.07L198.95 20.07Q201.51 21.92 202.47 23.72Q203.42 25.51 203.66 28.15L203.03 28.78Q196.61 29.03 191.65 29.03Q190.16 29.03 189.87 28.15Q189.75 27.78 189.60 27.42Q189.26 26.54 187.40 26.54L187.30 26.54Q185.86 26.54 184.84 27.21Q183.81 27.88 183.80 28.52Q183.79 29.15 184.07 29.57Q184.35 29.98 184.67 30.22Q184.99 30.47 185.64 30.73Q186.30 30.98 186.63 31.07Q186.96 31.15 187.67 31.35L188.53 31.57Q189.04 31.71 191.52 32.30Q193.99 32.89 195.65 33.42L195.65 33.40Q200.85 35.16 202.75 37.78Q204.64 40.41 204.64 43.90Q204.64 53.20 193.53 55.96Q190.31 56.76 186.65 57.10Q182.15 57.10 177.76 55.79Q173.36 54.47 171.88 51.49Q170.87 50.05 170.53 48.84Q170.19 47.63 169.97 45.46Q170.04 45.48 170.19 45.48ZM206.10 36.11Q206.69 30.54 208.06 27.73Q210.67 22.31 215.84 20.04Q220.46 18.02 225.88 18.02Q234.96 18.02 239.14 23.00Q241.65 25.95 242.04 30.35L242.26 32.64Q241.85 33.03 237.01 33.03L233.13 32.98L232.81 32.98L230.69 32.93L230.10 32.96L229.61 32.96Q228.93 32.96 228.58 30.96Q228.22 28.96 227.50 28.31Q226.78 27.66 225.83 27.66Q224.88 27.66 224.16 28.00Q223.44 28.34 222.97 28.82Q222.51 29.30 222.19 30.18Q221.61 31.69 221.48 33.39Q221.36 35.08 221.36 37.18L221.36 37.77L221.26 40.23Q221.26 46.97 225.07 47.12Q226.05 47.12 226.44 46.78Q227.49 45.85 228.27 43.04Q228.44 42.46 228.69 42.09L229.61 42.09L230.74 42.11L234.69 42.11L235.89 42.09L238.21 42.11L239.62 42.11L241.06 42.14L242.04 42.14Q242.33 42.16 242.46 42.65L242.38 43.46Q242.16 46.34 241.04 48.68Q238.96 52.98 234.51 55.07Q230.05 57.15 224.73 57.15Q215.43 57.15 210.77 51.66Q206.10 46.17 206.10 36.11ZM257.79 37.01Q257.79 37.04 257.76 37.13L257.76 37.21Q257.67 38.23 257.67 39.50Q257.67 40.77 257.87 42.19Q258.08 43.60 258.56 45.02Q259.03 46.44 260.03 47.31Q261.11 48.24 262.44 48.24Q263.77 48.24 264.69 47.86Q265.60 47.49 266.22 46.90Q266.85 46.31 267.31 45.31Q268.48 42.65 268.48 37.06Q268.48 31.37 267.18 29.09Q265.87 26.81 263.23 26.81Q261.91 26.81 260.93 27.44Q259.94 28.08 259.44 28.76Q258.94 29.44 258.41 31.67Q257.89 33.89 257.89 35.77L257.79 37.01M243.75 37.21L243.80 36.67Q244.09 33.62 244.58 31.26Q245.07 28.91 246.17 26.86Q248.78 22.34 253.45 20.01Q258.13 17.68 263.54 17.68Q268.95 17.68 273.36 19.85Q276.00 21.14 277.49 23.12Q280.35 26.68 281.25 29.69Q282.15 32.69 282.15 36.62Q282.15 45.36 278.54 49.95L277.42 51.44Q275.15 54.08 271.00 55.51Q266.85 56.93 262.77 56.98Q255.79 56.98 251.32 54.05Q243.75 49.15 243.75 37.21ZM295.61 18.65L300.17 18.58Q312.11 18.58 316.94 22.53Q317.97 23.29 319.19 25.07Q322.73 30.22 322.73 36.45Q322.73 47.56 315.09 52.88Q310.52 56.08 304.59 56.13L304.49 56.23L303.88 56.23L297.39 56.15Q292.97 56.15 286.33 56.37Q285.86 55.49 285.86 54.30L285.89 53.42L285.89 49.61L285.94 44.19L285.94 35.25Q285.89 32.18 285.89 30.66L285.89 26.66L285.91 26.10L285.91 19.12Q285.91 18.92 288.57 18.79Q291.24 18.65 292.82 18.65L295.61 18.65M305.96 27.10Q304.57 26.10 302.88 25.98Q302.29 25.95 301.28 25.93Q300.27 25.90 299.80 25.88Q299.37 26.54 299.22 26.86L298.78 27.76L298.78 29.13Q298.78 33.35 298.97 40.58L299.12 47.63Q299.27 48.39 300.10 48.54Q302.61 48.49 303.98 48.19Q308.79 46.48 308.79 36.50Q308.79 29.10 305.96 27.10ZM326.07 25.34L325.95 18.92Q325.98 18.92 326.12 18.99Q344.68 18.68 354.08 18.65Q354.17 18.70 354.22 18.80L354.22 25.68Q354.22 26.68 354.17 27.32Q354.05 27.71 352.73 27.71L352.56 27.71Q346.66 27.71 340.26 27.51Q340.26 27.73 340.20 28.30Q340.14 28.86 340.11 29.10L339.99 30.03Q339.87 30.96 339.82 33.25L347.39 33.08Q349.34 33.03 350.22 33.03L350.61 33.03Q352.10 33.03 352.56 33.12Q353.03 33.20 353.03 33.62L353.00 33.81L353.00 34.40L353.13 40.67L353.10 40.70L353.10 40.67Q345.68 41.04 341.24 41.04L340.09 41.04L340.09 46.95L353.34 46.53Q354.44 46.53 354.74 46.85Q354.71 47.49 354.71 48.66L354.88 55.30Q354.88 55.91 354.35 56.01L346.24 55.93Q343.85 55.93 336.72 56.10L332.71 56.20Q328.47 56.35 326.42 56.35L326.34 56.30L326.37 56.30Q326.12 56.05 325.90 55.83L325.90 54.98L326.05 28.88L326.07 25.34Z"/></g></g></svg>